<svg width="18" height="18" viewBox="0 0 18 18" fill="none" xmlns="http://www.w3.org/2000/svg">
<circle cx="9" cy="9" r="8.5" fill="#1E1E1E" stroke="#FFF1DB"/>
<path fill-rule="evenodd" clip-rule="evenodd" d="M13.2426 4.75736L9.87703 6.88266L9 3L8.12297 6.88266L4.75736 4.75736L6.88266 8.12297L3 9L6.88266 9.87703L4.75736 13.2426L8.12297 11.1173L9 15L9.87703 11.1173L13.2426 13.2426L11.1173 9.87703L15 9L11.1173 8.12297L13.2426 4.75736ZM9.89463 7.8177L9 5.4L8.10537 7.8177L7.32477 7.32477L7.8177 8.10537L5.4 9L7.8177 9.89463L7.32477 10.6752L8.10537 10.1823L9 12.6L9.89463 10.1823L10.6752 10.6752L10.1823 9.89463L12.6 9L10.1823 8.10537L10.6752 7.32477L9.89463 7.8177Z" fill="#FFF1DB"/>
</svg>
