<svg width="18" height="18" viewBox="0 0 18 18" fill="none" xmlns="http://www.w3.org/2000/svg">
<rect x="0.5" y="0.5" width="17" height="17" rx="4.5" fill="#C9A900" stroke="#FFF1DB"/>
<path d="M9 4.99434L9.65777 7.85012L12.182 6.28691L10.588 8.76239L13.5 7.51613L10.588 10.0525L12.1497 13.3478L9.65777 10.9648L9 16.5L8.34222 10.9648L5.78571 13.3478L7.41199 10.0525L4.5 7.51613L7.41199 8.76239L5.81802 6.28691L8.34222 7.85012L9 4.99434Z" fill="#1E1E1E"/>
<path d="M5.14286 4.36389C5.67049 3.83232 6.42857 3.26061 6.99797 2.94538C7.6567 2.5807 8.34018 2.39675 9.0966 2.40067C9.85303 2.4046 10.6072 2.63016 11.1878 2.94538C11.8014 3.27844 12.496 3.82687 13.0179 4.36389C12.0644 3.38273 10.5267 3.12345 9.14449 3.10347C9.12857 3.10324 9.11261 3.10308 9.0966 3.103C7.69413 3.09572 6.1214 3.37805 5.14286 4.36389Z" fill="#1E1E1E"/>
</svg>
