<svg width="18" height="18" viewBox="0 0 18 18" fill="none" xmlns="http://www.w3.org/2000/svg">
<rect x="0.5" y="0.5" width="17" height="17" rx="4.5" fill="#D00000" stroke="#FFF1DB"/>
<path d="M15.6363 8.2507C15.7701 8.2507 15.879 8.35919 15.8742 8.49289C15.8448 9.29677 15.6692 10.0897 15.3551 10.8341C15.0095 11.6531 14.503 12.3973 13.8645 13.0242C13.2259 13.651 12.4678 14.1483 11.6335 14.4875C10.7992 14.8268 9.90501 15.0014 9.00196 15.0014C8.09891 15.0014 7.2047 14.8268 6.37039 14.4875C5.53608 14.1483 4.778 13.651 4.13945 13.0242C3.5009 12.3973 2.99437 11.6531 2.64879 10.8341C2.33471 10.0897 2.15916 9.29677 2.12976 8.49289C2.12487 8.35919 2.23379 8.2507 2.36758 8.2507C2.50136 8.2507 2.60932 8.3592 2.61458 8.49288C2.64375 9.23428 2.80666 9.96541 3.09639 10.6521C3.41762 11.4134 3.88846 12.1052 4.48203 12.6879C5.0756 13.2706 5.78026 13.7328 6.55579 14.0481C7.33132 14.3635 8.16253 14.5258 9.00196 14.5258C9.84139 14.5258 10.6726 14.3635 11.4481 14.0481C12.2237 13.7328 12.9283 13.2706 13.5219 12.6879C14.1155 12.1052 14.5863 11.4134 14.9075 10.6521C15.1973 9.96541 15.3602 9.23429 15.3893 8.49288C15.3946 8.3592 15.5026 8.2507 15.6363 8.2507Z" fill="#1E1E1E"/>
<path d="M9.00196 4.20028L9.68962 8.02568L11.0649 6.90056L10.7815 8.42717H14.0448L10.7815 10.0509L11.0649 10.951L9.73909 10.6728L9.00196 12.0761L8.26484 10.6728L6.93898 10.951L7.22239 10.0509L3.95911 8.42717H7.22239L6.93898 6.90056L8.21537 8.02568L9.00196 4.20028Z" fill="#1E1E1E"/>
<path d="M2.16706 8.53068L2.21639 9.29572L2.47248 10.0199L1.77292 9.67931L1.00603 9.53494L1.65626 9.11048L2.16706 8.53068Z" fill="#1E1E1E"/>
<path d="M15.8328 8.55481L16.3437 9.13458L16.9939 9.559L16.2271 9.70341L15.5275 10.044L15.7836 9.31984L15.8328 8.55481Z" fill="#1E1E1E"/>
<path d="M8.07594 14.8634L8.84965 14.9669L9.62336 14.8634L9.14518 15.4694L8.84965 16.179L8.55412 15.4694L8.07594 14.8634Z" fill="#1E1E1E"/>
<path d="M3.87902 12.6083L4.40898 13.1713L5.07308 13.5745L4.31144 13.7436L3.62367 14.1065L3.85535 13.3745L3.87902 12.6083Z" fill="#1E1E1E"/>
<path d="M14.1321 12.6083L14.1558 13.3745L14.3875 14.1065L13.6997 13.7436L12.9381 13.5745L13.6021 13.1713L14.1321 12.6083Z" fill="#1E1E1E"/>
</svg>
