<svg width="18" height="18" viewBox="0 0 18 18" fill="none" xmlns="http://www.w3.org/2000/svg">
<rect x="0.5" y="0.5" width="17" height="17" rx="4.5" fill="#003E87" stroke="#FFF1DB"/>
<path d="M9.0432 3.73042L10.043 7.23383L13.577 6.348L11.0428 8.96558L13.577 11.5832L10.043 10.6973L9.0432 14.2007L8.04337 10.6973L4.50942 11.5832L7.04355 8.96558L4.50942 6.348L8.04337 7.23383L9.0432 3.73042Z" fill="#FFF1DB"/>
<path d="M3.76595 11.9428C3.65171 12.007 3.61078 12.152 3.6793 12.2637C4.06584 12.8939 4.56161 13.4509 5.14393 13.9084C5.78851 14.4148 6.52651 14.7892 7.31581 15.0104C8.10511 15.2316 8.93024 15.2951 9.7441 15.1974C10.558 15.0997 11.3446 14.8426 12.0591 14.4409C12.7736 14.0392 13.402 13.5007 13.9084 12.8561C14.4148 12.2115 14.7892 11.4735 15.0104 10.6842C15.2316 9.89489 15.2951 9.06976 15.1974 8.25591C15.1091 7.52066 14.8908 6.80762 14.5532 6.14992C14.4934 6.03332 14.3483 5.99297 14.2341 6.0572C14.1198 6.12143 14.0797 6.2659 14.1392 6.38269C14.4464 6.98592 14.6453 7.63912 14.7262 8.31248C14.8165 9.06446 14.7578 9.82685 14.5534 10.5561C14.3491 11.2854 14.0031 11.9673 13.5352 12.5629C13.0673 13.1584 12.4867 13.656 11.8265 14.0272C11.1663 14.3984 10.4395 14.6359 9.68752 14.7262C8.93555 14.8165 8.17315 14.7578 7.44387 14.5534C6.71458 14.3491 6.03269 14.0031 5.43712 13.5352C4.90382 13.1162 4.44908 12.6068 4.09332 12.0309C4.02444 11.9194 3.88019 11.8786 3.76595 11.9428Z" fill="#FFF1DB"/>
<path d="M6.54057 2.92502L6.97563 4.10077L8.15138 4.53583L6.97563 4.9709L6.54057 6.14665L6.1055 4.9709L4.92975 4.53583L6.1055 4.10077L6.54057 2.92502Z" fill="#FFF1DB"/>
</svg>
