<svg width="47" height="46" viewBox="0 0 47 46" fill="none" xmlns="http://www.w3.org/2000/svg">
<rect x="5.5" y="5.5" width="29" height="29" rx="4.5" fill="#1E1E1E" stroke="#FFF1DB"/>
<path d="M11.9468 29.4664C11.5959 29.8174 11.0249 29.8178 10.6715 29.4644C10.3181 29.111 10.3185 28.54 10.6695 28.1891C10.756 28.1025 10.8555 28.0374 10.9617 27.9937L11.5519 28.5839L12.1422 29.1742C12.0985 29.2804 12.0334 29.3798 11.9468 29.4664Z" fill="#FFF1DB" stroke="#FFF1DB"/>
<mask id="path-3-inside-1_16_3346" fill="white">
<path d="M15.4567 26.2459L13.3678 25.2014L13.89 24.6792L15.4567 26.2459Z"/>
</mask>
<path d="M15.4567 26.2459L13.3678 25.2014L13.89 24.6792L15.4567 26.2459Z" fill="#FFF1DB"/>
<path d="M15.4567 26.2459L15.0095 27.1403L16.1638 25.5388L15.4567 26.2459ZM13.3678 25.2014L12.6606 24.4943L11.6796 25.4754L12.9205 26.0959L13.3678 25.2014ZM13.89 24.6792L14.5971 23.9721L13.89 23.265L13.1829 23.9721L13.89 24.6792ZM15.9039 25.3515L13.815 24.307L12.9205 26.0959L15.0095 27.1403L15.9039 25.3515ZM14.0749 25.9085L14.5971 25.3863L13.1829 23.9721L12.6606 24.4943L14.0749 25.9085ZM13.1829 25.3863L14.7496 26.953L16.1638 25.5388L14.5971 23.9721L13.1829 25.3863Z" fill="#FFF1DB" mask="url(#path-3-inside-1_16_3346)"/>
<mask id="path-5-inside-2_16_3346" fill="white">
<path d="M11.2788 27.2904L13.3677 28.3348L12.8455 28.857L11.2788 27.2904Z"/>
</mask>
<path d="M11.2788 27.2904L13.3677 28.3348L12.8455 28.857L11.2788 27.2904Z" fill="#FFF1DB"/>
<path d="M11.2788 27.2904L11.726 26.3959L10.5717 27.9975L11.2788 27.2904ZM13.3677 28.3348L14.0748 29.0419L15.0559 28.0609L13.8149 27.4404L13.3677 28.3348ZM12.8455 28.857L12.1384 29.5642L12.8455 30.2713L13.5526 29.5642L12.8455 28.857ZM10.8316 28.1848L12.9205 29.2292L13.8149 27.4404L11.726 26.3959L10.8316 28.1848ZM12.6606 27.6277L12.1384 28.1499L13.5526 29.5642L14.0748 29.0419L12.6606 27.6277ZM13.5526 28.1499L11.9859 26.5833L10.5717 27.9975L12.1384 29.5642L13.5526 28.1499Z" fill="#FFF1DB" mask="url(#path-5-inside-2_16_3346)"/>
<mask id="path-7-inside-3_16_3346" fill="white">
<path d="M13.2111 25.3581L15.3 26.4026L14.7778 26.9248L12.6889 25.8803L13.2111 25.3581Z"/>
</mask>
<path d="M13.2111 25.3581L15.3 26.4026L14.7778 26.9248L12.6889 25.8803L13.2111 25.3581Z" fill="#FFF1DB"/>
<path d="M13.2111 25.3581L13.6583 24.4637L13.0137 24.1413L12.504 24.651L13.2111 25.3581ZM15.3 26.4026L16.0071 27.1097L16.9882 26.1286L15.7472 25.5081L15.3 26.4026ZM14.7778 26.9248L14.3306 27.8192L14.9752 28.1416L15.4849 27.6319L14.7778 26.9248ZM12.6889 25.8803L11.9818 25.1732L11.0007 26.1543L12.2417 26.7748L12.6889 25.8803ZM12.7639 26.2525L14.8528 27.297L15.7472 25.5081L13.6583 24.4637L12.7639 26.2525ZM14.5929 25.6955L14.0707 26.2177L15.4849 27.6319L16.0071 27.1097L14.5929 25.6955ZM15.225 26.0304L13.1361 24.9859L12.2417 26.7748L14.3306 27.8192L15.225 26.0304ZM13.396 26.5874L13.9182 26.0652L12.504 24.651L11.9818 25.1732L13.396 26.5874Z" fill="#FFF1DB" mask="url(#path-7-inside-3_16_3346)"/>
<mask id="path-9-inside-4_16_3346" fill="white">
<path d="M12.5844 25.9848L14.6733 27.0292L14.1511 27.5515L12.0622 26.507L12.5844 25.9848Z"/>
</mask>
<path d="M12.5844 25.9848L14.6733 27.0292L14.1511 27.5515L12.0622 26.507L12.5844 25.9848Z" fill="#FFF1DB"/>
<path d="M12.5844 25.9848L13.0316 25.0904L12.3869 24.768L11.8773 25.2777L12.5844 25.9848ZM14.6733 27.0292L15.3804 27.7363L16.3615 26.7553L15.1205 26.1348L14.6733 27.0292ZM14.1511 27.5515L13.7039 28.4459L14.3485 28.7682L14.8582 28.2586L14.1511 27.5515ZM12.0622 26.507L11.3551 25.7999L10.374 26.781L11.615 27.4014L12.0622 26.507ZM12.1372 26.8792L14.2261 27.9237L15.1205 26.1348L13.0316 25.0904L12.1372 26.8792ZM13.9662 26.3221L13.444 26.8444L14.8582 28.2586L15.3804 27.7363L13.9662 26.3221ZM14.5983 26.657L12.5094 25.6126L11.615 27.4014L13.7039 28.4459L14.5983 26.657ZM12.7693 27.2141L13.2915 26.6919L11.8773 25.2777L11.3551 25.7999L12.7693 27.2141Z" fill="#FFF1DB" mask="url(#path-9-inside-4_16_3346)"/>
<mask id="path-11-inside-5_16_3346" fill="white">
<path d="M11.9578 26.6115L14.0467 27.6559L13.5244 28.1781L11.4355 27.1337L11.9578 26.6115Z"/>
</mask>
<path d="M11.9578 26.6115L14.0467 27.6559L13.5244 28.1781L11.4355 27.1337L11.9578 26.6115Z" fill="#FFF1DB"/>
<path d="M11.9578 26.6115L12.405 25.717L11.7603 25.3947L11.2506 25.9044L11.9578 26.6115ZM14.0467 27.6559L14.7538 28.363L15.7348 27.382L14.4939 26.7615L14.0467 27.6559ZM13.5244 28.1781L13.0772 29.0726L13.7219 29.3949L14.2315 28.8853L13.5244 28.1781ZM11.4355 27.1337L10.7284 26.4266L9.74736 27.4076L10.9883 28.0281L11.4355 27.1337ZM11.5105 27.5059L13.5995 28.5503L14.4939 26.7615L12.405 25.717L11.5105 27.5059ZM13.3396 26.9488L12.8173 27.471L14.2315 28.8853L14.7538 28.363L13.3396 26.9488ZM13.9716 27.2837L11.8827 26.2393L10.9883 28.0281L13.0772 29.0726L13.9716 27.2837ZM12.1426 27.8408L12.6649 27.3186L11.2506 25.9044L10.7284 26.4266L12.1426 27.8408Z" fill="#FFF1DB" mask="url(#path-11-inside-5_16_3346)"/>
<path d="M16.1781 24.1278L22.0602 26.6487L16.1781 25.2482L17.0184 31.6905L15.0577 25.2482L8.61545 23.2875L15.0577 24.1278L13.6572 18.2457L16.1781 24.1278Z" fill="#FFF1DB"/>
<path d="M27.5557 14.3939L29.8179 10.3179L25.8542 12.6985L14.8059 23.7633L13.5197 22.5152L13.1829 22.8521L17.6256 27.2949L17.9523 26.9473L16.4755 25.4699L27.5557 14.3939Z" fill="#FFF1DB"/>
<path d="M29.8179 10.3179L30.2551 10.5606L31.1613 8.92784L29.5605 9.88929L29.8179 10.3179ZM27.5557 14.3939L27.9092 14.7475L27.9588 14.6979L27.9929 14.6366L27.5557 14.3939ZM16.4755 25.4699L16.122 25.1163L15.7684 25.4698L16.1219 25.8234L16.4755 25.4699ZM17.9523 26.9473L18.3166 27.2897C18.5016 27.0929 18.4968 26.7848 18.3059 26.5938L17.9523 26.9473ZM17.6256 27.2949L17.2721 27.6484C17.3677 27.7441 17.4981 27.7969 17.6334 27.7948C17.7687 27.7927 17.8973 27.7359 17.99 27.6373L17.6256 27.2949ZM13.1829 22.8521L12.8293 22.4985C12.7355 22.5923 12.6829 22.7195 12.6829 22.8521C12.6829 22.9847 12.7355 23.1119 12.8293 23.2056L13.1829 22.8521ZM13.5197 22.5152L13.8679 22.1564C13.6719 21.9661 13.3594 21.9685 13.1662 22.1616L13.5197 22.5152ZM14.8059 23.7633L14.4577 24.1221L14.8115 24.4653L15.1597 24.1165L14.8059 23.7633ZM25.8542 12.6985L25.5968 12.2699L25.544 12.3016L25.5004 12.3453L25.8542 12.6985ZM29.3808 10.0753L27.1185 14.1513L27.9929 14.6366L30.2551 10.5606L29.3808 10.0753ZM27.2022 14.0403L16.122 25.1163L16.829 25.8236L27.9092 14.7475L27.2022 14.0403ZM16.1219 25.8234L17.5987 27.3008L18.3059 26.5938L16.8291 25.1165L16.1219 25.8234ZM17.5879 26.6049L17.2613 26.9524L17.99 27.6373L18.3166 27.2897L17.5879 26.6049ZM13.5364 23.2056L13.8733 22.8688L13.1662 22.1616L12.8293 22.4985L13.5364 23.2056ZM13.1716 22.874L14.4577 24.1221L15.1541 23.4044L13.8679 22.1564L13.1716 22.874ZM15.1597 24.1165L26.2081 13.0518L25.5004 12.3453L14.4521 23.41L15.1597 24.1165ZM26.1117 13.1272L30.0754 10.7466L29.5605 9.88929L25.5968 12.2699L26.1117 13.1272ZM12.8293 23.2056L17.2721 27.6484L17.9792 26.9413L13.5364 22.4985L12.8293 23.2056Z" fill="#FFF1DB"/>
<path d="M18.4976 27.7201C18.2602 27.9575 17.8754 27.9575 17.638 27.7201C17.4007 27.4828 17.4007 27.0979 17.638 26.8606C17.8754 26.6232 18.2602 26.6232 18.4976 26.8606C18.735 27.0979 18.735 27.4828 18.4976 27.7201Z" fill="#FFF1DB" stroke="#FFF1DB"/>
<path d="M13.2753 22.4978C13.0379 22.7352 12.6531 22.7352 12.4157 22.4978C12.1784 22.2605 12.1784 21.8756 12.4157 21.6383C12.6531 21.4009 13.0379 21.4009 13.2753 21.6383C13.5127 21.8756 13.5127 22.2605 13.2753 22.4978Z" fill="#FFF1DB" stroke="#FFF1DB"/>
</svg>
